# xmcd CD database file
#
# Track frame offsets:
#	150
#	14675
#	27734
#	47631
#	65541
#	79939
#	95496
#	112002
#	127718
#	145536
#	161581
#	178189
#	194029
#	210703
#	223606
#	237051
#
# Disc length: 3377 seconds
#
# Revision: 11
# Processed by: cddbd v1.5.2PL0 Copyright (c) Steve Scherf et al.
# Submitted via: CDex 1.50Beta7
#
DISCID=e90d2f10
DTITLE=Al Bano and Romina Power - Felicita 
DYEAR=1985
DGENRE=Italo
TTITLE0=Felicita
TTITLE1=Prima Notte D'amore (Enlaces Sur Le Sable)
TTITLE2=Sharazan
TTITLE3=L'amore e
TTITLE4=Meditando
TTITLE5=Canzone Blu
TTITLE6=Magic Oh Magic
TTITLE7=Anche Tu
TTITLE8=Perche
TTITLE9=Grazie
TTITLE10=Che Angelo Sei
TTITLE11=Angeli
TTITLE12=Tu Soltanto Tu (Mi Hai Fatto Innamorare)
TTITLE13=Gli Innamorati
TTITLE14=It's Forever
TTITLE15=Ciao, Aufwiedersehen, Goodbye
EXTD=Gold-Serie\nAAD BMG Ariola 297097-200\n4007192 970971\n YEAR: 1985
EXTT0=
EXTT1=
EXTT2=
EXTT3=
EXTT4=
EXTT5=
EXTT6=
EXTT7=
EXTT8=
EXTT9=
EXTT10=
EXTT11=
EXTT12=
EXTT13=
EXTT14=
EXTT15=
PLAYORDER=
